<?xml version="1.0" encoding="utf-8"?>
<!-- Generator: Adobe Illustrator 15.1.0, SVG Export Plug-In . SVG Version: 6.00 Build 0)  -->
<!DOCTYPE svg PUBLIC "-//W3C//DTD SVG 1.1//EN" "http://www.w3.org/Graphics/SVG/1.1/DTD/svg11.dtd">
<svg version="1.1" id="Layer_1" xmlns="http://www.w3.org/2000/svg" xmlns:xlink="http://www.w3.org/1999/xlink" x="0px" y="0px"
	 width="94px" height="94px" viewBox="13 -14 94 94" enable-background="new 13 -14 94 94" xml:space="preserve">
<rect x="13" y="-14" fill="#212121" width="94" height="94"/>
<g>
	<polygon fill="#6699CC" points="91.777,31.036 96.4,34.005 91.777,36.958 91.777,40.063 101.285,34.028 91.777,27.976 	"/>
	<polygon fill="#6699CC" points="80.047,23.503 89.475,29.558 89.475,26.507 80.047,20.501 	"/>
	<polygon fill="#6699CC" points="80.047,47.516 89.475,41.528 89.475,38.433 80.047,44.454 	"/>
</g>
<g>
	<polygon fill="#6699CC" points="26.556,36.979 21.933,34.01 26.556,31.057 26.556,27.951 17.048,33.986 26.556,40.039 	"/>
	<polygon fill="#6699CC" points="38.286,44.512 28.859,38.457 28.859,41.508 38.286,47.514 	"/>
	<polygon fill="#6699CC" points="38.286,20.5 28.859,26.486 28.859,29.582 38.286,23.561 	"/>
</g>
<path fill="#FFC775" d="M68.988,46.889c-1.327,0.535-2.702,0.932-4.121,1.188c-1.42,0.258-2.905,0.389-4.453,0.389
	c-2.23,0-4.232-0.307-6.001-0.913c-1.769-0.607-3.272-1.514-4.509-2.71c-1.234-1.199-2.18-2.683-2.834-4.452
	c-0.654-1.772-0.981-3.82-0.981-6.143c0-2.249,0.354-4.286,1.065-6.113c0.709-1.824,1.709-3.383,3-4.674s2.845-2.285,4.662-2.986
	c1.814-0.702,3.84-1.051,6.07-1.051c1.826,0,3.361,0.096,4.605,0.291c1.244,0.193,2.365,0.438,3.359,0.732V27
	c-1.145-0.572-2.383-1.014-3.72-1.327s-2.604-0.471-3.804-0.471c-1.254,0-2.378,0.213-3.375,0.636
	c-0.995,0.426-1.835,1.014-2.516,1.77c-0.683,0.757-1.203,1.675-1.563,2.751c-0.358,1.079-0.54,2.266-0.54,3.556
	c0,1.347,0.193,2.554,0.581,3.622c0.388,1.069,0.937,1.979,1.646,2.727c0.711,0.747,1.563,1.318,2.56,1.715
	c0.997,0.396,2.103,0.596,3.319,0.596c0.59,0,1.211-0.043,1.867-0.126c0.653-0.082,1.309-0.204,1.963-0.359
	c0.653-0.156,1.299-0.336,1.936-0.54c0.636-0.203,1.23-0.424,1.783-0.664V46.889L68.988,46.889z"/>
</svg>
