<?xml version="1.0" encoding="utf-8"?>
<!-- Generator: Adobe Illustrator 15.1.0, SVG Export Plug-In . SVG Version: 6.00 Build 0)  -->
<!DOCTYPE svg PUBLIC "-//W3C//DTD SVG 1.1//EN" "http://www.w3.org/Graphics/SVG/1.1/DTD/svg11.dtd">
<svg version="1.1" id="Layer_1" xmlns="http://www.w3.org/2000/svg" xmlns:xlink="http://www.w3.org/1999/xlink" x="0px" y="0px"
	 width="321px" height="67.5px" viewBox="-113.449 0 321 67.5" enable-background="new -113.449 0 321 67.5" xml:space="preserve">
<polygon fill="#6699CC" points="184.749,11.114 187.729,6.473 190.693,11.114 193.811,11.114 187.751,1.571 181.675,11.114 "/>
<polygon fill="#6699CC" points="177.186,22.891 183.263,13.428 180.2,13.428 174.172,22.891 "/>
<polygon fill="#6699CC" points="201.291,22.891 195.282,13.428 192.173,13.428 198.219,22.891 "/>
<path fill="#6699CC" d="M127.033,22.693v-0.497c-0.157,0.173-0.426,0.325-0.803,0.455s-0.766,0.195-1.168,0.195
	c-1.141,0-2.038-0.362-2.691-1.084c-0.654-0.723-0.981-1.731-0.981-3.025c0-1.292,0.376-2.345,1.126-3.157
	c0.751-0.813,1.691-1.218,2.822-1.218c0.62,0,1.186,0.127,1.695,0.381v-3.276l1.908-0.458v11.685H127.033L127.033,22.693z
	 M127.033,16.468c-0.408-0.326-0.833-0.489-1.275-0.489c-0.765,0-1.352,0.232-1.765,0.699c-0.412,0.466-0.618,1.135-0.618,2.004
	c0,1.701,0.819,2.551,2.458,2.551c0.184,0,0.409-0.055,0.677-0.164c0.267-0.109,0.441-0.22,0.523-0.332V16.468L127.033,16.468z"/>
<path fill="#6699CC" d="M138.152,19.187h-5.843c0.036,0.652,0.26,1.159,0.673,1.52c0.411,0.362,0.967,0.542,1.665,0.542
	c0.869,0,1.531-0.227,1.984-0.68l0.742,1.458c-0.673,0.545-1.676,0.817-3.009,0.817c-1.249,0-2.234-0.365-2.96-1.096
	c-0.725-0.73-1.088-1.75-1.088-3.059c0-1.288,0.398-2.332,1.195-3.131c0.797-0.8,1.752-1.2,2.868-1.2
	c1.186,0,2.139,0.354,2.856,1.062c0.718,0.708,1.076,1.609,1.076,2.704C138.313,18.36,138.259,18.714,138.152,19.187z
	 M132.379,17.751h4.017c-0.133-1.197-0.794-1.795-1.985-1.795C133.32,15.956,132.644,16.555,132.379,17.751z"/>
<path fill="#6699CC" d="M144.393,21.875c-0.174,0.285-0.476,0.519-0.905,0.7c-0.43,0.18-0.88,0.271-1.348,0.271
	c-0.881,0-1.574-0.221-2.077-0.661c-0.505-0.44-0.757-1.065-0.757-1.875c0-0.947,0.354-1.688,1.066-2.224
	c0.71-0.534,1.72-0.801,3.027-0.801c0.224,0,0.489,0.039,0.794,0.115c0-0.962-0.608-1.444-1.825-1.444
	c-0.718,0-1.318,0.12-1.803,0.359l-0.411-1.482c0.656-0.315,1.438-0.474,2.345-0.474c1.247,0,2.161,0.284,2.741,0.852
	c0.579,0.568,0.87,1.644,0.87,3.227v1.749c0,1.09,0.22,1.774,0.657,2.055c-0.158,0.275-0.334,0.444-0.528,0.507
	c-0.193,0.064-0.414,0.096-0.663,0.096c-0.275,0-0.522-0.103-0.741-0.306C144.616,22.336,144.469,22.115,144.393,21.875z
	 M144.208,18.843c-0.325-0.066-0.569-0.1-0.733-0.1c-1.507,0-2.26,0.494-2.26,1.482c0,0.733,0.425,1.1,1.274,1.1
	c1.146,0,1.719-0.573,1.719-1.718V18.843L144.208,18.843z"/>
<path fill="#6699CC" d="M148.501,11.466l1.909-0.458v9.195c0,1.008,0.3,1.609,0.901,1.802c-0.296,0.56-0.8,0.841-1.513,0.841
	c-0.866,0-1.298-0.601-1.298-1.803V11.466z"/>
<path fill="#6699CC" d="M160.086,19.187h-5.843c0.037,0.652,0.26,1.159,0.673,1.52c0.413,0.362,0.968,0.542,1.665,0.542
	c0.87,0,1.532-0.227,1.985-0.68l0.742,1.458c-0.674,0.545-1.677,0.817-3.01,0.817c-1.249,0-2.234-0.365-2.96-1.096
	c-0.725-0.73-1.088-1.75-1.088-3.059c0-1.288,0.398-2.332,1.195-3.131c0.797-0.8,1.753-1.2,2.868-1.2
	c1.186,0,2.139,0.354,2.856,1.062c0.717,0.708,1.076,1.609,1.076,2.704C160.247,18.36,160.193,18.714,160.086,19.187z
	 M154.313,17.751h4.017c-0.133-1.197-0.794-1.795-1.986-1.795C155.254,15.956,154.578,16.555,154.313,17.751z"/>
<path fill="#6699CC" d="M166.502,16.292c-0.341-0.223-0.715-0.336-1.123-0.336c-0.442,0-0.837,0.202-1.18,0.604
	c-0.344,0.402-0.516,0.894-0.516,1.475v4.658h-1.909v-8.18h1.909v0.749c0.534-0.601,1.245-0.902,2.131-0.902
	c0.652,0,1.151,0.1,1.497,0.298L166.502,16.292z"/>
<path fill="#6699CC" d="M167.952,22.166l0.682-1.52c0.569,0.453,1.213,0.68,1.932,0.68c0.743,0,1.114-0.265,1.114-0.795
	c0-0.309-0.112-0.564-0.337-0.763c-0.224-0.199-0.659-0.433-1.306-0.703c-1.409-0.586-2.115-1.406-2.115-2.459
	c0-0.707,0.27-1.259,0.81-1.654c0.54-0.394,1.23-0.592,2.069-0.592c0.852,0,1.65,0.191,2.398,0.573l-0.549,1.482
	c-0.418-0.357-0.998-0.534-1.742-0.534c-0.667,0-1.001,0.264-1.001,0.793c0,0.209,0.109,0.398,0.33,0.566
	c0.219,0.168,0.687,0.394,1.404,0.676s1.234,0.625,1.551,1.026c0.315,0.402,0.474,0.889,0.474,1.458
	c0,0.759-0.282,1.356-0.845,1.792c-0.563,0.435-1.327,0.653-2.294,0.653c-0.545,0-0.981-0.045-1.311-0.133
	C168.888,22.623,168.467,22.441,167.952,22.166z"/>
<path fill="#6699CC" d="M196.755,13.256V6.489h-1.071V4.887h3.048v8.369H196.755z M197.763,1.643c0.313,0,0.58,0.111,0.802,0.333
	c0.221,0.222,0.331,0.488,0.331,0.801s-0.11,0.58-0.331,0.801c-0.223,0.222-0.489,0.332-0.802,0.332s-0.579-0.11-0.801-0.332
	c-0.222-0.221-0.332-0.488-0.332-0.801s0.11-0.579,0.332-0.801C197.184,1.753,197.45,1.643,197.763,1.643z"/>
<path fill="#6699CC" d="M205.844,6.707c-0.35-0.229-0.732-0.344-1.149-0.344c-0.452,0-0.855,0.207-1.206,0.618
	c-0.353,0.411-0.528,0.914-0.528,1.508v4.767h-1.954V4.887h1.954v0.765c0.547-0.614,1.273-0.922,2.18-0.922
	c0.667,0,1.177,0.102,1.532,0.304L205.844,6.707z"/>
<path fill="#FFC775" d="M-83.922,50.886c-1.692,0.682-3.444,1.187-5.253,1.515c-1.81,0.33-3.702,0.495-5.676,0.495
	c-2.844,0-5.394-0.389-7.65-1.164c-2.256-0.775-4.172-1.927-5.747-3.454c-1.574-1.528-2.779-3.42-3.613-5.677
	c-0.834-2.256-1.251-4.865-1.251-7.826c0-2.868,0.452-5.465,1.357-7.792c0.904-2.327,2.18-4.313,3.825-5.958
	c1.646-1.645,3.625-2.914,5.941-3.807c2.314-0.894,4.894-1.34,7.738-1.34c2.327,0,4.283,0.123,5.87,0.371
	c1.587,0.246,3.014,0.558,4.283,0.933v8.355c-1.458-0.728-3.038-1.292-4.742-1.691c-1.704-0.4-3.32-0.6-4.848-0.6
	c-1.598,0-3.032,0.271-4.301,0.811c-1.269,0.542-2.339,1.292-3.208,2.256s-1.533,2.134-1.992,3.508
	c-0.458,1.375-0.688,2.886-0.688,4.531c0,1.716,0.248,3.256,0.741,4.617c0.494,1.363,1.193,2.521,2.098,3.474
	s1.992,1.68,3.261,2.186s2.68,0.759,4.231,0.759c0.752,0,1.544-0.054,2.38-0.159c0.834-0.105,1.668-0.259,2.502-0.459
	c0.834-0.199,1.657-0.429,2.468-0.688c0.811-0.258,1.568-0.54,2.274-0.846V50.886z"/>
<path fill="#FFC775" d="M-40.946,34.069c0,2.819-0.4,5.399-1.199,7.738c-0.799,2.339-1.951,4.343-3.455,6.011
	c-1.504,1.669-3.35,2.961-5.535,3.878c-2.186,0.916-4.677,1.375-7.474,1.375c-2.656,0-5.03-0.388-7.122-1.163
	c-2.092-0.775-3.866-1.934-5.323-3.473c-1.458-1.539-2.574-3.467-3.35-5.782c-0.775-2.314-1.164-5.012-1.164-8.091
	c0-2.843,0.405-5.429,1.217-7.756c0.811-2.327,1.974-4.313,3.49-5.958c1.516-1.645,3.367-2.92,5.553-3.825
	c2.185-0.905,4.653-1.358,7.403-1.358c2.679,0,5.065,0.394,7.157,1.181c2.092,0.788,3.866,1.957,5.324,3.508
	c1.457,1.551,2.567,3.472,3.332,5.764C-41.329,28.41-40.946,31.062-40.946,34.069z M-49.901,34.281c0-3.715-0.7-6.506-2.098-8.374
	c-1.399-1.869-3.461-2.803-6.187-2.803c-1.505,0-2.786,0.294-3.843,0.881c-1.058,0.588-1.928,1.393-2.609,2.416
	c-0.682,1.022-1.181,2.215-1.498,3.578s-0.476,2.82-0.476,4.372c0,3.736,0.752,6.551,2.256,8.443
	c1.505,1.892,3.561,2.837,6.17,2.837c1.433,0,2.679-0.286,3.737-0.863c1.057-0.576,1.915-1.374,2.574-2.397
	c0.657-1.022,1.151-2.227,1.48-3.613C-50.066,37.371-49.901,35.879-49.901,34.281z"/>
<path fill="#FFC775" d="M-10.98,52.261l-0.211-5.288c-0.753,0.915-1.528,1.75-2.327,2.503c-0.799,0.752-1.657,1.393-2.574,1.921
	c-0.917,0.529-1.898,0.939-2.944,1.234c-1.046,0.293-2.204,0.44-3.473,0.44c-2.115,0-3.996-0.423-5.641-1.27
	c-1.645-0.846-3.026-2.05-4.143-3.613c-1.116-1.563-1.969-3.461-2.556-5.693c-0.588-2.232-0.881-4.724-0.881-7.475
	c0-3.29,0.464-6.14,1.392-8.549c0.929-2.41,2.215-4.407,3.861-5.994c1.645-1.587,3.596-2.762,5.852-3.525
	c2.257-0.764,4.712-1.146,7.369-1.146c0.893,0,1.792,0.059,2.697,0.177c0.905,0.118,1.71,0.271,2.416,0.458V2.445h8.602v49.815
	H-10.98z M-26.704,34.633c0,1.975,0.135,3.661,0.405,5.059c0.27,1.4,0.67,2.545,1.199,3.438c0.528,0.893,1.181,1.545,1.956,1.956
	c0.776,0.412,1.657,0.617,2.644,0.617c1.458,0,2.843-0.587,4.16-1.763c1.316-1.176,2.715-2.785,4.196-4.83V23.457
	c-0.683-0.258-1.522-0.47-2.521-0.634c-0.999-0.165-2.004-0.247-3.015-0.247c-1.387,0-2.632,0.282-3.737,0.846
	c-1.105,0.563-2.051,1.364-2.838,2.397c-0.788,1.034-1.393,2.298-1.816,3.789C-26.492,31.102-26.704,32.777-26.704,34.633z"/>
<path fill="#FFC775" d="M17.753,23.14H7.635v-6.698h18.932v29.12h10.33v6.699H6.4v-6.699h11.353V23.14z M27.272,6.64
	c0,0.776-0.141,1.504-0.423,2.187c-0.282,0.682-0.676,1.275-1.181,1.78c-0.506,0.506-1.099,0.906-1.78,1.199
	c-0.682,0.294-1.422,0.44-2.221,0.44s-1.546-0.146-2.239-0.44c-0.693-0.293-1.293-0.693-1.798-1.199
	c-0.506-0.505-0.899-1.098-1.181-1.78c-0.282-0.682-0.423-1.411-0.423-2.187c0-0.775,0.141-1.504,0.423-2.185
	c0.282-0.682,0.675-1.281,1.181-1.798c0.505-0.517,1.104-0.922,1.798-1.217C20.12,1.146,20.867,1,21.666,1s1.539,0.146,2.221,0.44
	c0.681,0.294,1.274,0.7,1.78,1.217c0.505,0.517,0.899,1.117,1.181,1.798C27.131,5.136,27.272,5.865,27.272,6.64z"/>
<path fill="#FFC775" d="M67.251,52.261V28.922c0-3.925-1.457-5.887-4.372-5.887c-1.457,0-2.849,0.587-4.178,1.762
	c-1.328,1.176-2.732,2.773-4.212,4.794v22.67h-8.603V16.442h7.439l0.211,5.288c0.729-0.917,1.487-1.75,2.274-2.503
	c0.788-0.752,1.64-1.393,2.557-1.922c0.917-0.529,1.903-0.934,2.961-1.215c1.058-0.283,2.244-0.424,3.561-0.424
	c1.833,0,3.431,0.3,4.794,0.899c1.363,0.6,2.503,1.446,3.419,2.539s1.604,2.41,2.062,3.949c0.458,1.54,0.688,3.261,0.688,5.164
	v24.045H67.251z"/>
<path fill="#FFC775" d="M112.448,22.717c0.657,0.823,1.122,1.687,1.393,2.591c0.271,0.905,0.404,1.828,0.404,2.768
	c0,1.998-0.346,3.761-1.039,5.288c-0.694,1.528-1.669,2.809-2.926,3.843c-1.258,1.034-2.762,1.816-4.513,2.345
	c-1.751,0.529-3.685,0.794-5.8,0.794c-1.246,0-2.396-0.125-3.455-0.37c-1.057-0.247-1.856-0.534-2.397-0.864
	c-0.4,0.4-0.741,0.84-1.022,1.321c-0.282,0.482-0.423,1.028-0.423,1.641c0,0.376,0.093,0.752,0.283,1.128
	c0.188,0.376,0.463,0.711,0.829,1.005c0.363,0.294,0.797,0.534,1.304,0.722c0.505,0.189,1.075,0.295,1.709,0.318l8.497,0.316
	c1.903,0.049,3.625,0.288,5.164,0.723c1.54,0.437,2.861,1.053,3.967,1.852c1.104,0.799,1.956,1.769,2.555,2.908
	c0.599,1.141,0.899,2.438,0.899,3.896c0,1.669-0.376,3.243-1.128,4.725c-0.753,1.481-1.886,2.768-3.401,3.86
	c-1.518,1.093-3.402,1.956-5.659,2.591s-4.877,0.952-7.862,0.952c-2.892,0-5.376-0.229-7.457-0.688
	c-2.081-0.458-3.785-1.099-5.112-1.921c-1.327-0.823-2.309-1.804-2.943-2.944c-0.635-1.141-0.952-2.392-0.952-3.755
	c0-0.823,0.106-1.586,0.317-2.291c0.211-0.705,0.529-1.381,0.952-2.027c0.423-0.646,0.952-1.275,1.586-1.886
	c0.634-0.611,1.387-1.222,2.257-1.833c-1.152-0.658-2.028-1.505-2.627-2.539c-0.6-1.033-0.899-2.139-0.899-3.314
	c0-0.797,0.106-1.544,0.318-2.237c0.211-0.693,0.487-1.358,0.828-1.993c0.341-0.634,0.735-1.245,1.182-1.833s0.917-1.163,1.41-1.728
	c-0.87-0.869-1.592-1.921-2.167-3.155c-0.576-1.233-0.864-2.779-0.864-4.636c0-1.997,0.358-3.778,1.076-5.341
	c0.716-1.563,1.709-2.879,2.979-3.949c1.27-1.069,2.779-1.88,4.531-2.433c1.75-0.552,3.66-0.828,5.728-0.828
	c1.058,0,2.074,0.052,3.049,0.158s1.863,0.289,2.662,0.547h12.41v6.275H112.448z M92.176,57.02c0,1.387,0.699,2.41,2.098,3.067
	c1.398,0.658,3.367,0.987,5.905,0.987c1.622,0,2.991-0.153,4.107-0.458c1.116-0.307,2.028-0.705,2.732-1.199
	c0.706-0.494,1.21-1.07,1.517-1.728c0.305-0.657,0.458-1.34,0.458-2.045c0-0.635-0.146-1.17-0.441-1.604
	c-0.294-0.435-0.705-0.8-1.234-1.093c-0.528-0.295-1.151-0.518-1.868-0.67c-0.717-0.153-1.511-0.253-2.38-0.3l-7.58-0.141
	c-0.682,0.47-1.24,0.916-1.674,1.339c-0.435,0.424-0.775,0.841-1.021,1.252c-0.248,0.411-0.412,0.829-0.495,1.252
	S92.176,56.55,92.176,57.02z M93.622,28.287c0,1.903,0.558,3.414,1.674,4.529c1.117,1.117,2.674,1.677,4.671,1.677
	c1.058,0,1.979-0.178,2.768-0.529c0.788-0.354,1.439-0.823,1.957-1.411c0.517-0.587,0.905-1.269,1.164-2.045
	c0.259-0.775,0.388-1.586,0.388-2.433c0-1.997-0.559-3.555-1.674-4.671c-1.117-1.117-2.675-1.675-4.672-1.675
	c-1.058,0-1.979,0.176-2.767,0.529c-0.788,0.353-1.44,0.829-1.957,1.428s-0.904,1.299-1.163,2.098
	C93.75,26.583,93.622,27.418,93.622,28.287z"/>
</svg>
