<?xml version="1.0" encoding="utf-8"?>
<!-- Generator: Adobe Illustrator 15.1.0, SVG Export Plug-In . SVG Version: 6.00 Build 0)  -->
<!DOCTYPE svg PUBLIC "-//W3C//DTD SVG 1.1//EN" "http://www.w3.org/Graphics/SVG/1.1/DTD/svg11.dtd">
<svg version="1.1" id="Layer_1" xmlns="http://www.w3.org/2000/svg" xmlns:xlink="http://www.w3.org/1999/xlink" x="0px" y="0px"
	 width="321px" height="68px" viewBox="0 0 321 68" enable-background="new 0 0 321 68" xml:space="preserve">
<polygon fill="#6699CC" points="297.696,11.263 300.664,6.64 303.617,11.263 306.723,11.263 300.687,1.756 294.635,11.263 "/>
<polygon fill="#6699CC" points="290.162,22.993 296.217,13.567 293.166,13.567 287.16,22.993 "/>
<polygon fill="#6699CC" points="314.174,22.993 308.188,13.567 305.092,13.567 311.113,22.993 "/>
<path fill="#6699CC" d="M240.207,22.797v-0.496c-0.157,0.173-0.426,0.324-0.801,0.453c-0.375,0.13-0.764,0.194-1.164,0.194
	c-1.137,0-2.029-0.36-2.68-1.08c-0.652-0.72-0.977-1.724-0.977-3.014c0-1.285,0.374-2.334,1.121-3.144
	c0.748-0.81,1.684-1.214,2.811-1.214c0.617,0,1.182,0.127,1.689,0.38v-3.263l1.899-0.457v11.64H240.207L240.207,22.797z
	 M240.207,16.596c-0.407-0.324-0.83-0.487-1.271-0.487c-0.762,0-1.346,0.231-1.758,0.696c-0.41,0.465-0.615,1.13-0.615,1.996
	c0,1.694,0.815,2.54,2.448,2.54c0.184,0,0.407-0.054,0.675-0.163c0.266-0.107,0.439-0.218,0.521-0.331V16.596L240.207,16.596z"/>
<path fill="#6699CC" d="M251.281,19.305h-5.82c0.037,0.648,0.26,1.153,0.671,1.514c0.409,0.359,0.964,0.539,1.659,0.539
	c0.865,0,1.524-0.227,1.976-0.678l0.739,1.453c-0.67,0.543-1.67,0.813-2.998,0.813c-1.244,0-2.225-0.364-2.947-1.092
	s-1.084-1.743-1.084-3.046c0-1.284,0.396-2.323,1.189-3.119c0.795-0.798,1.746-1.196,2.857-1.196c1.182,0,2.131,0.354,2.845,1.059
	c0.716,0.705,1.071,1.603,1.071,2.693C251.441,18.479,251.389,18.833,251.281,19.305z M245.531,17.873h4.002
	c-0.133-1.191-0.791-1.787-1.979-1.787C246.469,16.086,245.795,16.682,245.531,17.873z"/>
<path fill="#6699CC" d="M257.498,21.981c-0.173,0.284-0.475,0.518-0.901,0.697c-0.429,0.179-0.876,0.27-1.343,0.27
	c-0.877,0-1.568-0.22-2.068-0.657c-0.504-0.439-0.754-1.062-0.754-1.868c0-0.943,0.352-1.682,1.062-2.216
	c0.707-0.532,1.713-0.798,3.015-0.798c0.224,0,0.488,0.039,0.791,0.115c0-0.959-0.605-1.438-1.817-1.438
	c-0.716,0-1.313,0.119-1.796,0.356l-0.41-1.476c0.654-0.314,1.433-0.472,2.336-0.472c1.242,0,2.152,0.282,2.73,0.849
	c0.576,0.565,0.867,1.638,0.867,3.214v1.743c0,1.085,0.219,1.767,0.654,2.046c-0.158,0.274-0.333,0.442-0.526,0.505
	c-0.192,0.063-0.412,0.096-0.66,0.096c-0.274,0-0.521-0.103-0.738-0.305S257.574,22.221,257.498,21.981z M257.314,18.961
	c-0.324-0.065-0.566-0.1-0.73-0.1c-1.502,0-2.252,0.491-2.252,1.477c0,0.73,0.424,1.096,1.27,1.096c1.142,0,1.713-0.571,1.713-1.711
	V18.961L257.314,18.961z"/>
<path fill="#6699CC" d="M261.59,11.613l1.902-0.457v9.16c0,1.004,0.299,1.603,0.896,1.794c-0.294,0.558-0.797,0.838-1.507,0.838
	c-0.862,0-1.292-0.599-1.292-1.796V11.613L261.59,11.613z"/>
<path fill="#6699CC" d="M273.13,19.305h-5.819c0.035,0.648,0.258,1.153,0.67,1.514c0.411,0.359,0.964,0.539,1.658,0.539
	c0.867,0,1.525-0.227,1.977-0.678l0.74,1.453c-0.672,0.543-1.671,0.813-2.999,0.813c-1.244,0-2.226-0.364-2.948-1.092
	s-1.084-1.743-1.084-3.046c0-1.284,0.396-2.323,1.19-3.119c0.794-0.798,1.747-1.196,2.856-1.196c1.182,0,2.131,0.354,2.846,1.059
	c0.714,0.705,1.072,1.603,1.072,2.693C273.291,18.479,273.236,18.833,273.13,19.305z M267.379,17.873h4.002
	c-0.133-1.191-0.791-1.787-1.979-1.787C268.316,16.086,267.644,16.682,267.379,17.873z"/>
<path fill="#6699CC" d="M279.521,16.42c-0.34-0.223-0.713-0.334-1.119-0.334c-0.439,0-0.834,0.201-1.176,0.602
	s-0.514,0.891-0.514,1.469v4.641h-1.902v-8.148h1.902v0.745c0.531-0.598,1.24-0.898,2.123-0.898c0.648,0,1.146,0.101,1.49,0.298
	L279.521,16.42z"/>
<path fill="#6699CC" d="M280.965,22.271l0.68-1.514c0.566,0.451,1.209,0.677,1.925,0.677c0.739,0,1.108-0.265,1.108-0.792
	c0-0.307-0.11-0.562-0.335-0.761c-0.223-0.198-0.657-0.431-1.301-0.7c-1.403-0.584-2.106-1.399-2.106-2.449
	c0-0.704,0.268-1.253,0.807-1.646c0.537-0.393,1.225-0.591,2.061-0.591c0.848,0,1.645,0.19,2.389,0.572l-0.547,1.476
	c-0.416-0.355-0.994-0.532-1.734-0.532c-0.664,0-0.998,0.263-0.998,0.79c0,0.208,0.108,0.396,0.328,0.563
	c0.219,0.168,0.686,0.393,1.398,0.674c0.715,0.281,1.23,0.622,1.545,1.021c0.314,0.4,0.473,0.886,0.473,1.453
	c0,0.756-0.281,1.35-0.842,1.784c-0.561,0.434-1.32,0.65-2.284,0.65c-0.542,0-0.978-0.045-1.306-0.132
	C281.898,22.727,281.479,22.546,280.965,22.271z"/>
<path fill="#6699CC" d="M309.655,13.396v-6.74h-1.067V5.06h3.037v8.336H309.655z M310.66,1.828c0.312,0,0.577,0.11,0.798,0.333
	c0.221,0.221,0.331,0.485,0.331,0.797s-0.11,0.578-0.331,0.798c-0.222,0.221-0.486,0.331-0.798,0.331
	c-0.313,0-0.578-0.11-0.799-0.331c-0.221-0.22-0.33-0.486-0.33-0.798s0.109-0.576,0.33-0.797
	C310.082,1.938,310.348,1.828,310.66,1.828z"/>
<path fill="#6699CC" d="M318.709,6.873c-0.349-0.228-0.729-0.343-1.145-0.343c-0.45,0-0.852,0.206-1.202,0.615
	c-0.351,0.41-0.524,0.91-0.524,1.502v4.748h-1.947V5.06h1.947v0.763c0.544-0.612,1.268-0.918,2.17-0.918
	c0.666,0,1.174,0.101,1.527,0.302L318.709,6.873z"/>
<path fill="#FFC775" d="M30.076,50.879c-1.685,0.68-3.431,1.183-5.232,1.509c-1.803,0.328-3.688,0.494-5.654,0.494
	c-2.833,0-5.373-0.389-7.62-1.16c-2.247-0.772-4.156-1.92-5.725-3.441c-1.567-1.521-2.768-3.406-3.599-5.653
	C1.416,40.379,1,37.78,1,34.831c0-2.856,0.45-5.443,1.352-7.763c0.9-2.316,2.171-4.295,3.81-5.934
	c1.64-1.639,3.611-2.902,5.918-3.792c2.305-0.891,4.875-1.335,7.708-1.335c2.318,0,4.267,0.122,5.847,0.369
	c1.581,0.245,3.002,0.556,4.266,0.93v8.322c-1.453-0.726-3.026-1.287-4.723-1.685c-1.698-0.398-3.308-0.598-4.83-0.598
	c-1.592,0-3.02,0.271-4.284,0.808c-1.264,0.541-2.33,1.288-3.195,2.247c-0.866,0.961-1.527,2.127-1.984,3.494
	c-0.457,1.37-0.686,2.876-0.686,4.514c0,1.71,0.247,3.243,0.738,4.599c0.492,1.358,1.189,2.512,2.09,3.462
	c0.902,0.949,1.984,1.673,3.249,2.177s2.669,0.757,4.214,0.757c0.749,0,1.538-0.055,2.371-0.16c0.831-0.104,1.662-0.258,2.492-0.457
	c0.831-0.198,1.651-0.427,2.458-0.685c0.808-0.257,1.562-0.538,2.265-0.843V50.879z"/>
<path fill="#FFC775" d="M72.884,34.127c0,2.81-0.399,5.378-1.194,7.708c-0.796,2.331-1.944,4.327-3.441,5.988
	c-1.498,1.661-3.337,2.949-5.513,3.862c-2.178,0.912-4.659,1.369-7.445,1.369c-2.646,0-5.011-0.385-7.094-1.157
	c-2.084-0.772-3.851-1.927-5.303-3.459c-1.452-1.533-2.563-3.455-3.336-5.761c-0.772-2.305-1.16-4.992-1.16-8.059
	c0-2.832,0.403-5.408,1.212-7.726c0.808-2.319,1.966-4.297,3.477-5.936c1.51-1.638,3.354-2.908,5.531-3.81
	c2.177-0.901,4.635-1.353,7.375-1.353c2.668,0,5.045,0.392,7.129,1.176c2.084,0.785,3.851,1.949,5.303,3.494
	c1.451,1.546,2.557,3.459,3.319,5.742C72.502,28.491,72.884,31.133,72.884,34.127z M63.964,34.339c0-3.7-0.697-6.48-2.09-8.341
	c-1.394-1.862-3.448-2.793-6.163-2.793c-1.499,0-2.775,0.294-3.828,0.877c-1.054,0.587-1.921,1.389-2.599,2.407
	c-0.679,1.019-1.176,2.207-1.492,3.563c-0.316,1.358-0.474,2.81-0.474,4.356c0,3.721,0.749,6.525,2.247,8.409
	c1.499,1.885,3.547,2.826,6.146,2.826c1.428,0,2.669-0.284,3.722-0.86c1.053-0.573,1.908-1.367,2.564-2.387
	c0.655-1.018,1.146-2.218,1.474-3.6C63.799,37.417,63.964,35.931,63.964,34.339z"/>
<path fill="#FFC775" d="M102.732,52.248l-0.21-5.268c-0.75,0.913-1.522,1.743-2.318,2.494c-0.796,0.749-1.65,1.388-2.564,1.913
	c-0.913,0.527-1.891,0.936-2.933,1.229c-1.042,0.292-2.195,0.438-3.459,0.438c-2.107,0-3.98-0.42-5.619-1.265
	c-1.639-0.842-3.014-2.042-4.127-3.599c-1.112-1.557-1.961-3.448-2.546-5.671c-0.585-2.223-0.877-4.705-0.877-7.446
	c0-3.276,0.462-6.115,1.386-8.515c0.925-2.401,2.207-4.39,3.846-5.972c1.639-1.579,3.583-2.75,5.83-3.51
	c2.248-0.762,4.693-1.142,7.34-1.142c0.889,0,1.785,0.059,2.686,0.175c0.902,0.119,1.703,0.271,2.407,0.458V2.628h8.568v49.619
	L102.732,52.248L102.732,52.248z M87.07,34.689c0,1.967,0.135,3.646,0.404,5.039c0.269,1.395,0.667,2.534,1.194,3.425
	c0.526,0.89,1.177,1.539,1.949,1.948c0.773,0.41,1.65,0.615,2.634,0.615c1.452,0,2.832-0.585,4.144-1.757
	c1.311-1.172,2.705-2.773,4.18-4.812V23.558c-0.681-0.257-1.516-0.47-2.511-0.632c-0.995-0.164-1.996-0.246-3.003-0.246
	c-1.381,0-2.622,0.28-3.722,0.843c-1.101,0.56-2.043,1.358-2.827,2.387c-0.785,1.031-1.388,2.29-1.809,3.774
	C87.281,31.172,87.07,32.841,87.07,34.689z"/>
<path fill="#FFC775" d="M131.353,23.242h-10.079v-6.673h18.858v29.007h10.29v6.672h-30.378v-6.672h11.309V23.242z M140.835,6.807
	c0,0.772-0.141,1.498-0.421,2.178c-0.281,0.679-0.674,1.27-1.177,1.773c-0.504,0.504-1.095,0.902-1.773,1.194
	c-0.679,0.292-1.417,0.438-2.212,0.438s-1.54-0.146-2.23-0.438c-0.69-0.292-1.289-0.69-1.792-1.194
	c-0.504-0.504-0.895-1.095-1.176-1.773c-0.281-0.68-0.422-1.405-0.422-2.178s0.141-1.499,0.422-2.177
	c0.281-0.68,0.672-1.276,1.176-1.791c0.503-0.515,1.1-0.919,1.792-1.213c0.689-0.292,1.433-0.438,2.229-0.438
	s1.533,0.146,2.212,0.438c0.678,0.294,1.269,0.698,1.773,1.213c0.503,0.515,0.896,1.111,1.177,1.791
	C140.694,5.308,140.835,6.034,140.835,6.807z"/>
<path fill="#FFC775" d="M180.658,52.248V29.001c0-3.91-1.451-5.864-4.355-5.864c-1.451,0-2.838,0.585-4.161,1.755
	c-1.323,1.172-2.722,2.763-4.196,4.775v22.581h-8.569V16.569h7.411l0.209,5.268c0.727-0.914,1.481-1.743,2.266-2.493
	c0.785-0.749,1.634-1.388,2.547-1.915c0.914-0.527,1.896-0.93,2.949-1.21c1.054-0.282,2.235-0.422,3.547-0.422
	c1.826,0,3.418,0.299,4.775,0.895c1.357,0.599,2.494,1.44,3.406,2.529c0.912,1.09,1.598,2.4,2.054,3.934
	c0.456,1.534,0.685,3.249,0.685,5.145v23.95L180.658,52.248L180.658,52.248z"/>
<path fill="#FFC775" d="M225.678,22.82c0.654,0.819,1.117,1.681,1.388,2.581c0.271,0.901,0.403,1.82,0.403,2.757
	c0,1.99-0.346,3.746-1.035,5.268c-0.691,1.522-1.662,2.798-2.915,3.828c-1.253,1.029-2.751,1.809-4.495,2.335
	c-1.744,0.527-3.671,0.791-5.777,0.791c-1.241,0-2.387-0.125-3.441-0.368c-1.053-0.247-1.85-0.532-2.389-0.861
	c-0.398,0.398-0.737,0.838-1.018,1.317s-0.421,1.023-0.421,1.634c0,0.375,0.093,0.749,0.282,1.124
	c0.188,0.374,0.461,0.708,0.825,1.001c0.362,0.292,0.794,0.531,1.299,0.72c0.503,0.188,1.071,0.293,1.702,0.315l8.465,0.314
	c1.895,0.049,3.61,0.288,5.143,0.721c1.535,0.435,2.85,1.049,3.951,1.846c1.101,0.796,1.949,1.762,2.546,2.896
	c0.597,1.138,0.896,2.429,0.896,3.881c0,1.663-0.375,3.231-1.123,4.707c-0.75,1.476-1.879,2.758-3.389,3.845
	c-1.512,1.089-3.389,1.947-5.637,2.581C218.689,66.684,216.08,67,213.106,67c-2.881,0-5.354-0.229-7.428-0.686
	c-2.073-0.456-3.771-1.095-5.093-1.914c-1.32-0.818-2.299-1.796-2.931-2.932c-0.632-1.137-0.948-2.383-0.948-3.741
	c0-0.818,0.105-1.579,0.316-2.282c0.209-0.702,0.525-1.375,0.947-2.019s0.948-1.27,1.58-1.878c0.631-0.608,1.381-1.218,2.248-1.827
	c-1.148-0.655-2.021-1.499-2.617-2.528c-0.598-1.029-0.895-2.131-0.895-3.301c0-0.794,0.105-1.538,0.316-2.229
	c0.21-0.69,0.484-1.353,0.824-1.984c0.34-0.633,0.732-1.241,1.178-1.827s0.913-1.157,1.404-1.721
	c-0.867-0.865-1.586-1.913-2.158-3.143c-0.574-1.228-0.861-2.769-0.861-4.618c0-1.989,0.357-3.764,1.072-5.319
	c0.713-1.558,1.702-2.868,2.967-3.935c1.266-1.063,2.77-1.872,4.514-2.424c1.744-0.549,3.646-0.824,5.706-0.824
	c1.054,0,2.065,0.052,3.037,0.157s1.855,0.288,2.651,0.545h12.361v6.251h-5.621V22.82z M205.485,56.988
	c0,1.383,0.696,2.401,2.09,3.056c1.393,0.655,3.354,0.983,5.882,0.983c1.615,0,2.979-0.152,4.092-0.456
	c1.111-0.307,2.02-0.702,2.721-1.194c0.703-0.492,1.205-1.065,1.512-1.721c0.303-0.655,0.455-1.335,0.455-2.037
	c0-0.634-0.145-1.166-0.439-1.599c-0.293-0.433-0.701-0.797-1.229-1.088c-0.525-0.294-1.146-0.516-1.861-0.668
	c-0.714-0.152-1.505-0.253-2.371-0.3l-7.549-0.14c-0.68,0.469-1.236,0.912-1.668,1.334c-0.434,0.423-0.771,0.837-1.018,1.247
	c-0.246,0.409-0.41,0.825-0.492,1.248C205.525,56.074,205.485,56.521,205.485,56.988z M206.926,28.368
	c0,1.896,0.557,3.401,1.668,4.512c1.112,1.113,2.663,1.67,4.652,1.67c1.054,0,1.971-0.178,2.757-0.526
	c0.785-0.354,1.434-0.82,1.949-1.406c0.515-0.584,0.901-1.264,1.159-2.037c0.259-0.772,0.387-1.579,0.387-2.423
	c0-1.989-0.557-3.542-1.668-4.652c-1.111-1.113-2.664-1.67-4.652-1.67c-1.055,0-1.972,0.177-2.757,0.527
	c-0.785,0.353-1.435,0.826-1.949,1.423s-0.9,1.293-1.158,2.09C207.053,26.671,206.926,27.503,206.926,28.368z"/>
</svg>
