<?xml version="1.0" encoding="utf-8"?>
<!-- Generator: Adobe Illustrator 15.1.0, SVG Export Plug-In . SVG Version: 6.00 Build 0)  -->
<!DOCTYPE svg PUBLIC "-//W3C//DTD SVG 1.1//EN" "http://www.w3.org/Graphics/SVG/1.1/DTD/svg11.dtd">
<svg version="1.1" id="Layer_1" xmlns="http://www.w3.org/2000/svg" xmlns:xlink="http://www.w3.org/1999/xlink" x="0px" y="0px"
	 width="221px" height="221px" viewBox="0 -82.5 221 221" enable-background="new 0 -82.5 221 221" xml:space="preserve">
<circle fill="#6699CC" cx="110.5" cy="28" r="110.5"/>
<polygon fill="#FFFFFF" points="156.009,25.084 162.593,14.831 169.143,25.084 176.032,25.084 162.643,4 149.214,25.084 "/>
<polygon fill="#FFFFFF" points="139.296,51.107 152.725,30.199 145.956,30.199 132.638,51.107 "/>
<polygon fill="#FFFFFF" points="192.559,51.107 179.28,30.199 172.412,30.199 185.772,51.107 "/>
<path fill="#FFFFFF" d="M28.473,50.672v-1.099c-0.349,0.383-0.94,0.718-1.772,1.005c-0.833,0.286-1.693,0.43-2.583,0.43
	c-2.52,0-4.502-0.799-5.948-2.396s-2.169-3.825-2.169-6.683s0.831-5.183,2.489-6.978c1.659-1.795,3.739-2.691,6.237-2.691
	c1.371,0,2.62,0.282,3.746,0.844v-7.239l4.219-1.012v25.82H28.473L28.473,50.672z M28.473,36.917c-0.9-0.72-1.84-1.08-2.818-1.08
	c-1.688,0-2.988,0.514-3.898,1.544c-0.911,1.029-1.368,2.507-1.368,4.431c0,3.757,1.812,5.636,5.434,5.636
	c0.405,0,0.903-0.121,1.494-0.363c0.59-0.241,0.976-0.487,1.157-0.734L28.473,36.917L28.473,36.917z"/>
<path fill="#FFFFFF" d="M53.044,42.925H40.133c0.079,1.44,0.574,2.561,1.485,3.358c0.912,0.799,2.138,1.198,3.679,1.198
	c1.923,0,3.386-0.5,4.388-1.503l1.637,3.224c-1.485,1.205-3.702,1.806-6.649,1.806c-2.757,0-4.937-0.807-6.539-2.422
	c-1.604-1.614-2.404-3.867-2.404-6.759c0-2.847,0.879-5.151,2.64-6.918c1.761-1.768,3.874-2.651,6.338-2.651
	c2.621,0,4.726,0.783,6.312,2.347c1.585,1.564,2.38,3.556,2.38,5.974C53.399,41.097,53.28,41.878,53.044,42.925z M40.286,39.752
	h8.876c-0.293-2.644-1.756-3.967-4.388-3.967C42.367,35.785,40.87,37.108,40.286,39.752z"/>
<path fill="#FFFFFF" d="M66.832,48.863c-0.383,0.631-1.05,1.146-2,1.545c-0.952,0.399-1.944,0.6-2.978,0.6
	c-1.947,0-3.477-0.486-4.591-1.46s-1.671-2.354-1.671-4.144c0-2.092,0.785-3.729,2.354-4.912c1.569-1.181,3.8-1.771,6.692-1.771
	c0.495,0,1.08,0.084,1.754,0.253c0-2.127-1.345-3.19-4.032-3.19c-1.586,0-2.914,0.266-3.984,0.795l-0.91-3.275
	c1.451-0.697,3.179-1.048,5.181-1.048c2.757,0,4.776,0.628,6.058,1.883s1.923,3.631,1.923,7.13v3.865
	c0,2.407,0.484,3.92,1.452,4.539c-0.35,0.608-0.738,0.982-1.165,1.122c-0.428,0.141-0.917,0.212-1.468,0.212
	c-0.608,0-1.153-0.227-1.638-0.676C67.327,49.883,67,49.395,66.832,48.863z M66.425,42.165c-0.719-0.146-1.259-0.221-1.62-0.221
	c-3.33,0-4.995,1.093-4.995,3.274c0,1.62,0.94,2.431,2.818,2.431c2.531,0,3.796-1.266,3.796-3.797L66.425,42.165L66.425,42.165z"/>
<path fill="#FFFFFF" d="M75.911,25.863l4.219-1.012V45.17c0,2.226,0.664,3.555,1.992,3.982c-0.653,1.237-1.767,1.856-3.342,1.856
	c-1.913,0-2.869-1.327-2.869-3.982V25.863z"/>
<path fill="#FFFFFF" d="M101.511,42.925h-12.91c0.08,1.44,0.574,2.561,1.486,3.358c0.911,0.799,2.138,1.198,3.68,1.198
	c1.922,0,3.386-0.5,4.387-1.503l1.637,3.224c-1.485,1.205-3.702,1.806-6.649,1.806c-2.758,0-4.937-0.807-6.54-2.422
	c-1.604-1.614-2.405-3.867-2.405-6.759c0-2.847,0.88-5.151,2.642-6.918c1.76-1.768,3.872-2.651,6.336-2.651
	c2.622,0,4.726,0.783,6.312,2.347c1.586,1.564,2.379,3.556,2.379,5.974C101.866,41.097,101.748,41.878,101.511,42.925z
	 M88.753,39.752h8.877c-0.292-2.644-1.755-3.967-4.388-3.967C90.834,35.785,89.338,37.108,88.753,39.752z"/>
<path fill="#FFFFFF" d="M115.687,36.528c-0.754-0.494-1.58-0.743-2.48-0.743c-0.978,0-1.849,0.446-2.607,1.334
	c-0.76,0.89-1.139,1.976-1.139,3.26v10.293h-4.218V32.597h4.218v1.654c1.181-1.328,2.751-1.993,4.708-1.993
	c1.441,0,2.543,0.221,3.308,0.659L115.687,36.528z"/>
<path fill="#FFFFFF" d="M118.894,49.506l1.502-3.358c1.261,1.001,2.684,1.502,4.27,1.502c1.642,0,2.464-0.585,2.464-1.755
	c0-0.686-0.248-1.249-0.743-1.688c-0.495-0.438-1.458-0.956-2.886-1.553c-3.116-1.294-4.674-3.104-4.674-5.434
	c0-1.563,0.597-2.781,1.788-3.654c1.192-0.872,2.719-1.308,4.573-1.308c1.879,0,3.646,0.422,5.299,1.266l-1.214,3.274
	c-0.924-0.788-2.206-1.181-3.848-1.181c-1.475,0-2.211,0.584-2.211,1.755c0,0.461,0.241,0.878,0.727,1.248
	c0.482,0.373,1.518,0.87,3.104,1.495c1.587,0.624,2.729,1.381,3.427,2.269c0.697,0.889,1.046,1.964,1.046,3.224
	c0,1.676-0.622,2.995-1.864,3.956c-1.244,0.962-2.934,1.443-5.07,1.443c-1.204,0-2.169-0.099-2.896-0.295
	C120.96,50.517,120.028,50.114,118.894,49.506z"/>
<path fill="#FFFFFF" d="M182.536,29.818V14.864h-2.365v-3.54h6.734v18.494H182.536z M184.765,4.157c0.691,0,1.28,0.244,1.771,0.734
	c0.489,0.49,0.732,1.079,0.732,1.77c0,0.691-0.243,1.281-0.732,1.771c-0.491,0.489-1.08,0.733-1.771,0.733s-1.281-0.244-1.771-0.733
	s-0.733-1.079-0.733-1.771c0-0.69,0.244-1.28,0.733-1.77C183.483,4.401,184.074,4.157,184.765,4.157z"/>
<path fill="#FFFFFF" d="M202.62,15.347c-0.771-0.506-1.617-0.76-2.538-0.76c-1.002,0-1.891,0.455-2.668,1.364
	c-0.776,0.91-1.165,2.02-1.165,3.333v10.534h-4.318V11.324h4.318v1.691c1.208-1.357,2.813-2.038,4.817-2.038
	c1.474,0,2.602,0.225,3.384,0.674L202.62,15.347z"/>
</svg>
